<?xml version="1.0" standalone="no"?>
<!DOCTYPE svg PUBLIC "-//W3C//DTD SVG 1.1//EN" "http://www.w3.org/Graphics/SVG/1.1/DTD/svg11.dtd" >
<!--
2019-4-19: Created with FontForge (http://fontforge.org)
-->
<svg xmlns="http://www.w3.org/2000/svg" xmlns:xlink="http://www.w3.org/1999/xlink" version="1.1">
<metadata>
Created by FontForge 20190111 at Sat Apr 20 10:46:07 2019
 By Haider Ali Punjabi

</metadata>
<defs>
<font id="DBSScouter" horiz-adv-x="1000" >
  <font-face 
    font-family="DBS Scouter"
    font-weight="400"
    font-stretch="normal"
    units-per-em="1000"
    panose-1="2 0 5 9 0 0 0 0 0 0"
    ascent="801"
    descent="-199"
    x-height="748"
    cap-height="801"
    bbox="-1.03515 -200.631 1000.88 801.3"
    underline-thickness="46.875"
    underline-position="-97.6562"
    unicode-range="U+002D-007A"
  />
    <missing-glyph />
    <glyph glyph-name="a" unicode="a" 
d="M248 -166c-8 18 -8 84 -4 148l8 116l242 7l244 6v-156v-154h-238c-182 0 -242 8 -252 33zM49 617c0 70 11 138 27 154c20 20 151 30 428 30c453 0 457 -2 445 -184l-8 -113l-447 -8l-445 -6v127z" />
    <glyph glyph-name="b" unicode="b" 
d="M316 -178c-23 -23 -234 -31 -255 -10c-23 23 -16 944 7 967c27 27 221 27 248 0c31 -31 31 -926 0 -957zM939 322c-37 -37 -256 -21 -287 20c-29 39 -31 343 0 404c21 43 34 47 151 47h127l13 -102c16 -100 14 -351 -4 -369z" />
    <glyph glyph-name="c" unicode="c" 
d="M43 -164c-8 20 -10 244 -6 500l8 465h451h453l8 -143l8 -142c-242 -31 -649 4 -649 4l20 -389h279c182 0 294 -12 315 -33c35 -35 42 -137 15 -237c-16 -61 -23 -60 -453 -60c-330 0 -439 8 -449 35z" />
    <glyph glyph-name="d" unicode="d" 
d="M865 -51c-18 -45 -70 -54 -101 -23c-33 33 -18 138 23 154c49 20 101 -70 78 -131zM240 -21c-25 -66 -90 -51 -119 27c-16 37 -27 199 -27 361c0 307 23 375 119 340c37 -14 45 -69 45 -352c0 -184 -8 -353 -18 -376zM885 551c-47 -123 -184 -59 -151 72
c10 37 34 74 55 82c57 21 121 -84 96 -154zM895 -158c-55 -55 -131 -55 -174 -2c-35 45 -49 257 -18 308c31 53 174 38 205 -21c43 -78 36 -236 -13 -285zM283 -123c-35 -66 -184 -70 -211 -4c-12 25 -19 244 -19 482v436l105 8c59 6 117 -4 131 -18c33 -33 29 -838 -6 -904
zM910 439c-37 -47 -128 -54 -187 -17c-45 29 -72 271 -35 326c31 47 185 51 230 6c43 -43 37 -260 -8 -315z" />
    <glyph glyph-name="e" unicode="e" 
d="M76 -178c-25 20 -31 78 -25 244l6 221l127 6c125 8 127 8 148 -72l22 -82l298 -6l297 -8v-158v-158l-164 -4c-479 -10 -678 -4 -709 17zM55 527c-8 18 -10 89 -6 155l8 119h441h440l7 -155l8 -152h-443c-354 0 -445 6 -455 33z" />
    <glyph glyph-name="g" unicode="g" 
d="M771 801c16 0 34 0 55 -2l119 -6v-492v-490l-215 -6c-119 -4 -222 -1 -230 7s-14 79 -14 155c0 137 2 140 53 140c29 0 71 10 92 22c37 20 39 45 39 322c0 166 8 310 18 326c8 14 36 24 83 24zM227 799h87l202 -6v-145v-142l-61 -6c-107 -12 -113 -27 -113 -336
c0 -158 -8 -303 -20 -324c-16 -31 -43 -39 -119 -39c-53 0 -109 9 -123 23c-39 39 -35 926 4 957c14 12 65 18 143 18z" />
    <glyph glyph-name="h" unicode="h" 
d="M982 -158c-16 -33 -81 -39 -464 -39c-311 0 -462 8 -485 29c-47 41 -45 231 4 266c41 29 883 42 936 15c31 -18 36 -209 9 -271zM783 455c-39 -49 -68 -55 -283 -55s-246 6 -285 55c-59 72 -59 252 0 303c33 29 105 39 273 39c189 0 236 -8 283 -49
c70 -61 76 -213 12 -293z" />
    <glyph glyph-name="i" unicode="i" 
d="M209 781c148 14 150 16 252 20c35 0 23 -274 -12 -309c-33 -33 -143 -36 -299 -13l-80 11v141v139zM500 100c277 0 398 -6 416 -24c25 -25 33 -189 12 -244c-10 -27 -67 -31 -426 -31c-229 0 -420 3 -428 11c-23 23 -15 239 10 264c18 18 139 24 416 24z" />
    <glyph glyph-name="k" unicode="k" 
d="M232 801c68 -2 137 -12 151 -30c35 -41 42 -209 13 -250c-20 -25 -56 -35 -160 -41c-74 -4 -146 -4 -158 2c-29 14 -31 266 -2 295c18 18 88 26 156 24zM736 797c82 0 178 -14 192 -35c29 -45 19 -231 -12 -262c-35 -35 -279 -39 -312 -6c-12 12 -22 73 -22 145
c0 107 6 124 39 142c21 12 66 16 115 16zM504 127h406l18 -47c27 -74 21 -219 -12 -252c-23 -23 -88 -27 -422 -27c-283 0 -402 5 -418 21c-29 29 -29 254 0 283c16 16 137 22 428 22z" />
    <glyph glyph-name="l" unicode="l" 
d="M76 -184c-20 20 -22 895 -2 946c10 27 47 39 131 39h115v-500v-500h-113c-62 0 -123 7 -131 15zM516 -51c6 143 10 148 72 156l64 8l8 338l6 338l82 6c45 4 106 2 137 -6l54 -14v-488v-486h-214h-215z" />
    <glyph glyph-name="m" unicode="m" 
d="M49 -156c-23 62 -19 211 6 252c18 27 129 33 459 27l437 -8l8 -158l8 -156h-451c-385 0 -453 6 -467 43zM45 301c-8 21 -12 142 -8 269l10 231h451h453l8 -270l8 -267l-147 7l-144 8l-8 104l-10 105l-154 -9c-154 -8 -156 -8 -170 -104c-14 -92 -18 -96 -145 -104
c-92 -6 -134 3 -144 30z" />
    <glyph glyph-name="n" unicode="n" 
d="M340 -197c-297 8 -283 -6 -287 301c-2 121 3 226 11 234c18 18 268 26 284 10c6 -6 13 -45 19 -88l10 -78l262 -8c320 -10 316 -8 304 -205c-4 -72 -15 -137 -25 -147c-20 -20 -256 -27 -578 -19zM637 260c-12 12 -20 43 -20 72c0 107 4 106 -260 106
c-133 0 -253 7 -271 17c-27 16 -31 35 -31 154c0 90 5 145 19 157c12 10 201 21 430 27c398 12 408 11 426 -22c23 -43 25 -388 2 -470l-18 -63h-129c-78 0 -136 10 -148 22z" />
    <glyph glyph-name="o" unicode="o" 
d="M61 -45l9 156l385 6c469 10 492 1 492 -183v-133h-447h-447zM57 637v164l437 -8l440 -8v-148v-149l-440 -8l-437 -7v164z" />
    <glyph glyph-name="p" unicode="p" 
d="M348 -166c-16 -27 -39 -33 -143 -33c-117 0 -127 2 -143 45c-10 25 -17 124 -17 220c0 225 12 243 158 243c160 0 172 -18 166 -252c-2 -104 -11 -205 -21 -223zM928 -172c-18 -18 -61 -27 -123 -27c-154 0 -153 -6 -153 498c0 264 6 446 18 467c16 27 39 35 125 35
c166 0 160 16 160 -500c0 -379 -4 -450 -27 -473z" />
    <glyph glyph-name="r" unicode="r" 
d="M86 -180c-27 27 -35 278 -12 340c10 27 49 37 131 37h115l16 -181c10 -100 12 -190 4 -198c-25 -25 -227 -25 -254 2zM695 -178c-6 16 -8 238 -4 496l8 469h119h121v-490v-490l-117 -6c-68 -4 -121 5 -127 21zM72 568c-10 100 -12 191 -2 205s71 28 135 28
c139 0 153 -22 141 -254l-8 -145l-125 -7l-123 -6z" />
    <glyph glyph-name="s" unicode="s" 
d="M76 -186c-20 8 -29 63 -29 155v142l447 -7l449 -6l8 -116c12 -184 8 -185 -447 -181c-219 2 -412 7 -428 13zM686 316c-10 10 -18 45 -18 82c0 88 -45 100 -356 90l-253 -8l-8 141c-6 98 2 148 23 162c35 23 690 23 797 0l72 -15v-227v-229l-121 -5
c-66 -4 -126 -1 -136 9z" />
    <glyph glyph-name="t" unicode="t" 
d="M59 225c-8 234 -7 457 3 496l20 70h225h224v-156v-155l-90 -7c-107 -10 -130 -69 -97 -241c20 -102 25 -109 103 -121l84 -11v-143v-143l-228 -7l-229 -6zM672 -168c-6 18 -8 238 -4 494l6 465l80 8c45 4 106 0 137 -8l54 -14l-2 -457c-2 -252 -7 -472 -13 -488
c-16 -41 -242 -41 -258 0z" />
    <glyph glyph-name="u" unicode="u" 
d="M488 801c293 0 420 -8 438 -26s23 -150 23 -468c0 -375 -4 -448 -31 -475s-94 -31 -424 -31c-277 0 -400 5 -418 23c-25 25 -37 880 -12 944c10 27 67 33 424 33zM504 494c-57 0 -116 -12 -145 -33c-45 -31 -47 -45 -37 -166c6 -78 23 -140 39 -150s85 -18 153 -18
c146 0 150 6 150 195c0 107 -6 133 -39 151c-23 12 -57 17 -96 19c-8 0 -17 2 -25 2z" />
    <glyph glyph-name="w" unicode="w" 
d="M912 -182c-49 -25 -364 -23 -391 4c-14 14 -21 75 -21 151c0 182 11 191 230 181c94 -4 182 -13 194 -21c16 -10 23 -60 23 -154c0 -121 -6 -145 -35 -161zM906 488c-33 -23 -101 -27 -406 -25c-201 0 -377 6 -393 12c-43 18 -52 43 -52 158c0 170 -14 168 445 168
s447 4 447 -170c0 -98 -8 -120 -41 -143z" />
    <glyph glyph-name="y" unicode="y" 
d="M41 -55c0 139 2 145 66 157c37 8 117 6 178 -2l110 -16v-135v-135l-178 -7l-176 -6v144zM588 -113c-10 47 -8 115 0 148c14 59 23 61 185 61h172v-147v-146h-170h-170zM45 639l8 154l426 6c248 4 435 -2 449 -16c31 -31 45 -144 27 -228l-14 -69h-451h-453z" />
    <glyph glyph-name="A" unicode="A" 
d="M248 -166c-8 18 -8 84 -4 148l8 116l242 7l244 6v-156v-154h-238c-182 0 -242 8 -252 33zM49 617c0 70 11 138 27 154c20 20 151 30 428 30c453 0 457 -2 445 -184l-8 -113l-447 -8l-445 -6v127z" />
    <glyph glyph-name="B" unicode="B" 
d="M316 -178c-23 -23 -234 -31 -255 -10c-23 23 -16 944 7 967c27 27 221 27 248 0c31 -31 31 -926 0 -957zM939 322c-37 -37 -256 -21 -287 20c-29 39 -31 343 0 404c21 43 34 47 151 47h127l13 -102c16 -100 14 -351 -4 -369z" />
    <glyph glyph-name="C" unicode="C" 
d="M43 -164c-8 20 -10 244 -6 500l8 465h451h453l8 -143l8 -142c-242 -31 -649 4 -649 4l20 -389h279c182 0 294 -12 315 -33c35 -35 42 -137 15 -237c-16 -61 -23 -60 -453 -60c-330 0 -439 8 -449 35z" />
    <glyph glyph-name="D" unicode="D" 
d="M865 -51c-18 -45 -70 -54 -101 -23c-33 33 -18 138 23 154c49 20 101 -70 78 -131zM240 -21c-25 -66 -90 -51 -119 27c-16 37 -27 199 -27 361c0 307 23 375 119 340c37 -14 45 -69 45 -352c0 -184 -8 -353 -18 -376zM885 551c-47 -123 -184 -59 -151 72
c10 37 34 74 55 82c57 21 121 -84 96 -154zM895 -158c-55 -55 -131 -55 -174 -2c-35 45 -49 257 -18 308c31 53 174 38 205 -21c43 -78 36 -236 -13 -285zM283 -123c-35 -66 -184 -70 -211 -4c-12 25 -19 244 -19 482v436l105 8c59 6 117 -4 131 -18c33 -33 29 -838 -6 -904
zM910 439c-37 -47 -128 -54 -187 -17c-45 29 -72 271 -35 326c31 47 185 51 230 6c43 -43 37 -260 -8 -315z" />
    <glyph glyph-name="E" unicode="E" 
d="M76 -178c-25 20 -31 78 -25 244l6 221l127 6c125 8 127 8 148 -72l22 -82l298 -6l297 -8v-158v-158l-164 -4c-479 -10 -678 -4 -709 17zM55 527c-8 18 -10 89 -6 155l8 119h441h440l7 -155l8 -152h-443c-354 0 -445 6 -455 33z" />
    <glyph glyph-name="G" unicode="G" 
d="M771 801c16 0 34 0 55 -2l119 -6v-492v-490l-215 -6c-119 -4 -222 -1 -230 7s-14 79 -14 155c0 137 2 140 53 140c29 0 71 10 92 22c37 20 39 45 39 322c0 166 8 310 18 326c8 14 36 24 83 24zM227 799h87l202 -6v-145v-142l-61 -6c-107 -12 -113 -27 -113 -336
c0 -158 -8 -303 -20 -324c-16 -31 -43 -39 -119 -39c-53 0 -109 9 -123 23c-39 39 -35 926 4 957c14 12 65 18 143 18z" />
    <glyph glyph-name="H" unicode="H" 
d="M982 -158c-16 -33 -81 -39 -464 -39c-311 0 -462 8 -485 29c-47 41 -45 231 4 266c41 29 883 42 936 15c31 -18 36 -209 9 -271zM783 455c-39 -49 -68 -55 -283 -55s-246 6 -285 55c-59 72 -59 252 0 303c33 29 105 39 273 39c189 0 236 -8 283 -49
c70 -61 76 -213 12 -293z" />
    <glyph glyph-name="I" unicode="I" 
d="M209 781c148 14 150 16 252 20c35 0 23 -274 -12 -309c-33 -33 -143 -36 -299 -13l-80 11v141v139zM500 100c277 0 398 -6 416 -24c25 -25 33 -189 12 -244c-10 -27 -67 -31 -426 -31c-229 0 -420 3 -428 11c-23 23 -15 239 10 264c18 18 139 24 416 24z" />
    <glyph glyph-name="K" unicode="K" 
d="M232 801c68 -2 137 -12 151 -30c35 -41 42 -209 13 -250c-20 -25 -56 -35 -160 -41c-74 -4 -146 -4 -158 2c-29 14 -31 266 -2 295c18 18 88 26 156 24zM736 797c82 0 178 -14 192 -35c29 -45 19 -231 -12 -262c-35 -35 -279 -39 -312 -6c-12 12 -22 73 -22 145
c0 107 6 124 39 142c21 12 66 16 115 16zM504 127h406l18 -47c27 -74 21 -219 -12 -252c-23 -23 -88 -27 -422 -27c-283 0 -402 5 -418 21c-29 29 -29 254 0 283c16 16 137 22 428 22z" />
    <glyph glyph-name="L" unicode="L" 
d="M76 -184c-20 20 -22 895 -2 946c10 27 47 39 131 39h115v-500v-500h-113c-62 0 -123 7 -131 15zM516 -51c6 143 10 148 72 156l64 8l8 338l6 338l82 6c45 4 106 2 137 -6l54 -14v-488v-486h-214h-215z" />
    <glyph glyph-name="M" unicode="M" 
d="M49 -156c-23 62 -19 211 6 252c18 27 129 33 459 27l437 -8l8 -158l8 -156h-451c-385 0 -453 6 -467 43zM45 301c-8 21 -12 142 -8 269l10 231h451h453l8 -270l8 -267l-147 7l-144 8l-8 104l-10 105l-154 -9c-154 -8 -156 -8 -170 -104c-14 -92 -18 -96 -145 -104
c-92 -6 -134 3 -144 30z" />
    <glyph glyph-name="N" unicode="N" 
d="M340 -197c-297 8 -283 -6 -287 301c-2 121 3 226 11 234c18 18 268 26 284 10c6 -6 13 -45 19 -88l10 -78l262 -8c320 -10 316 -8 304 -205c-4 -72 -15 -137 -25 -147c-20 -20 -256 -27 -578 -19zM637 260c-12 12 -20 43 -20 72c0 107 4 106 -260 106
c-133 0 -253 7 -271 17c-27 16 -31 35 -31 154c0 90 5 145 19 157c12 10 201 21 430 27c398 12 408 11 426 -22c23 -43 25 -388 2 -470l-18 -63h-129c-78 0 -136 10 -148 22z" />
    <glyph glyph-name="O" unicode="O" 
d="M61 -45l9 156l385 6c469 10 492 1 492 -183v-133h-447h-447zM57 637v164l437 -8l440 -8v-148v-149l-440 -8l-437 -7v164z" />
    <glyph glyph-name="P" unicode="P" 
d="M348 -166c-16 -27 -39 -33 -143 -33c-117 0 -127 2 -143 45c-10 25 -17 124 -17 220c0 225 12 243 158 243c160 0 172 -18 166 -252c-2 -104 -11 -205 -21 -223zM928 -172c-18 -18 -61 -27 -123 -27c-154 0 -153 -6 -153 498c0 264 6 446 18 467c16 27 39 35 125 35
c166 0 160 16 160 -500c0 -379 -4 -450 -27 -473z" />
    <glyph glyph-name="R" unicode="R" 
d="M86 -180c-27 27 -35 278 -12 340c10 27 49 37 131 37h115l16 -181c10 -100 12 -190 4 -198c-25 -25 -227 -25 -254 2zM695 -178c-6 16 -8 238 -4 496l8 469h119h121v-490v-490l-117 -6c-68 -4 -121 5 -127 21zM72 568c-10 100 -12 191 -2 205s71 28 135 28
c139 0 153 -22 141 -254l-8 -145l-125 -7l-123 -6z" />
    <glyph glyph-name="S" unicode="S" 
d="M76 -186c-20 8 -29 63 -29 155v142l447 -7l449 -6l8 -116c12 -184 8 -185 -447 -181c-219 2 -412 7 -428 13zM686 316c-10 10 -18 45 -18 82c0 88 -45 100 -356 90l-253 -8l-8 141c-6 98 2 148 23 162c35 23 690 23 797 0l72 -15v-227v-229l-121 -5
c-66 -4 -126 -1 -136 9z" />
    <glyph glyph-name="T" unicode="T" 
d="M59 225c-8 234 -7 457 3 496l20 70h225h224v-156v-155l-90 -7c-107 -10 -130 -69 -97 -241c20 -102 25 -109 103 -121l84 -11v-143v-143l-228 -7l-229 -6zM672 -168c-6 18 -8 238 -4 494l6 465l80 8c45 4 106 0 137 -8l54 -14l-2 -457c-2 -252 -7 -472 -13 -488
c-16 -41 -242 -41 -258 0z" />
    <glyph glyph-name="U" unicode="U" 
d="M488 801c293 0 420 -8 438 -26s23 -150 23 -468c0 -375 -4 -448 -31 -475s-94 -31 -424 -31c-277 0 -400 5 -418 23c-25 25 -37 880 -12 944c10 27 67 33 424 33zM504 494c-57 0 -116 -12 -145 -33c-45 -31 -47 -45 -37 -166c6 -78 23 -140 39 -150s85 -18 153 -18
c146 0 150 6 150 195c0 107 -6 133 -39 151c-23 12 -57 17 -96 19c-8 0 -17 2 -25 2z" />
    <glyph glyph-name="W" unicode="W" 
d="M912 -182c-49 -25 -364 -23 -391 4c-14 14 -21 75 -21 151c0 182 11 191 230 181c94 -4 182 -13 194 -21c16 -10 23 -60 23 -154c0 -121 -6 -145 -35 -161zM906 488c-33 -23 -101 -27 -406 -25c-201 0 -377 6 -393 12c-43 18 -52 43 -52 158c0 170 -14 168 445 168
s447 4 447 -170c0 -98 -8 -120 -41 -143z" />
    <glyph glyph-name="Y" unicode="Y" 
d="M41 -55c0 139 2 145 66 157c37 8 117 6 178 -2l110 -16v-135v-135l-178 -7l-176 -6v144zM588 -113c-10 47 -8 115 0 148c14 59 23 61 185 61h172v-147v-146h-170h-170zM45 639l8 154l426 6c248 4 435 -2 449 -16c31 -31 45 -144 27 -228l-14 -69h-451h-453z" />
    <glyph glyph-name="zero" unicode="0" 
d="M141 -193c-76 4 -109 11 -123 29s-18 137 -18 467c0 242 6 449 12 459c14 21 335 43 396 27l41 -10l-4 -152l-6 -152l-50 -8l-53 -8v-164v-164l45 -4c25 -2 49 -13 55 -23c14 -23 14 -253 0 -274c-12 -20 -141 -29 -295 -23zM531 -156c-14 47 -12 239 2 260
c6 10 39 21 72 23l59 4v164v164l-45 6c-25 2 -49 9 -55 15c-16 16 -29 209 -19 258l10 43h207h209l15 -39c20 -53 18 -865 -2 -902c-14 -27 -31 -29 -228 -29c-209 0 -215 0 -225 33z" />
    <glyph glyph-name="one" unicode="1" 
d="M74 -180c-6 12 -12 137 -12 289c0 148 -3 318 -7 379c-8 137 4 274 25 295c12 12 45 18 143 18c123 0 154 -31 154 -31l557 -862s15 -39 13 -53c-6 -43 -35 -54 -144 -54c-164 0 -154 -6 -258 152c-39 45 -97 197 -156 199c-23 0 -26 -4 -28 -76c2 -86 25 -172 2 -258
c-6 -18 -21 -17 -142 -17s-137 1 -147 19z" />
    <glyph glyph-name="two" unicode="2" 
d="M88 -191c-23 16 -33 62 -31 160c2 68 5 99 17 111c18 18 19 18 406 20c424 4 413 4 442 -16c27 -18 29 -22 27 -131c-2 -166 33 -152 -451 -152c-219 0 -402 4 -410 8zM105 160c-47 18 -54 38 -54 143c0 66 5 103 13 109c8 4 127 10 266 12c303 4 307 4 297 45
c-4 16 -14 35 -20 39s-122 8 -259 8c-307 0 -297 -6 -297 140c0 150 -35 139 412 143c408 4 456 0 476 -45c8 -18 10 -121 10 -289c-2 -221 -3 -265 -17 -281c-16 -16 -66 -18 -414 -24c-219 -4 -403 -4 -413 0z" />
    <glyph glyph-name="three" unicode="3" 
d="M86 -182c-20 18 -25 36 -31 114c-6 80 -5 98 13 119c18 23 28 25 133 23c62 0 135 -4 160 -8c70 -10 311 6 332 22c10 8 20 27 20 45v185c0 109 -4 156 -14 170c-12 18 -42 20 -308 22c-354 2 -342 -4 -342 119c0 92 21 148 56 156c14 2 178 8 366 12
c363 8 412 4 455 -43c21 -23 23 -35 25 -447c2 -434 -2 -473 -41 -491c-10 -4 -195 -11 -410 -13c-371 -6 -393 -5 -414 15zM82 176c-20 8 -21 20 -23 92c-2 90 -1 132 7 140c2 2 132 8 288 10l283 4l6 -27c4 -16 9 -67 9 -112c2 -92 -12 -113 -74 -113
c-18 0 -133 0 -254 -2s-230 2 -242 8z" />
    <glyph glyph-name="four" unicode="4" 
d="M78 -180l-25 22v463c0 355 3 464 13 474c18 18 139 26 207 16c84 -12 82 -6 84 -338c2 -248 6 -297 20 -307c10 -6 114 -9 264 -7c176 2 253 -2 271 -12c31 -18 39 -67 33 -184c-4 -78 -8 -96 -29 -119l-27 -27h-393c-371 0 -393 -1 -418 19zM580 354
c-20 14 -21 30 -21 214c0 148 3 203 13 213s57 14 172 14c137 0 162 -2 180 -20s17 -45 21 -203c4 -244 14 -234 -193 -234c-113 0 -156 4 -172 16z" />
    <glyph glyph-name="five" unicode="5" 
d="M72 -176c-23 37 -23 212 0 235c21 21 -1 17 274 15c127 -2 245 2 261 6c39 10 49 45 24 72c-18 20 -35 22 -283 22c-191 0 -270 4 -280 14c-16 16 -18 203 -2 228c10 14 72 18 420 22c404 6 411 5 436 -18s25 -25 27 -285c2 -236 1 -268 -17 -293
c-12 -16 -31 -31 -45 -35s-197 -6 -410 -6h-389zM70 523c-25 25 -27 36 -25 118c2 94 12 130 41 144c10 4 195 10 414 12c477 6 449 16 455 -127c4 -98 -10 -148 -45 -168c-14 -8 -164 -10 -416 -8l-394 2z" />
    <glyph glyph-name="six" unicode="6" 
d="M68 -176c-10 18 -13 139 -17 473c-4 436 -4 448 17 469c31 31 123 37 512 33l328 -4l22 -25c29 -37 31 -235 2 -288l-20 -35l-260 8c-223 6 -259 4 -271 -10c-10 -12 -16 -97 -18 -308c-4 -359 6 -336 -166 -336c-107 0 -115 0 -129 23zM557 -182c-21 18 -24 34 -26 116
c-2 53 2 99 6 107s6 43 2 80c-6 59 -5 71 16 94c23 23 33 25 138 25c143 0 220 -16 241 -49c14 -20 15 -58 13 -181c-4 -209 2 -201 -209 -207c-141 -4 -160 -3 -181 15z" />
    <glyph glyph-name="seven" unicode="7" 
d="M662 -186c-8 8 -13 125 -17 297c-4 223 -10 291 -22 311c-16 23 -22 23 -266 25c-148 2 -257 6 -273 14c-33 16 -39 37 -39 154c0 104 14 158 45 174c27 14 750 14 803 0c27 -8 44 -20 52 -41s12 -164 10 -469l-4 -437l-25 -22c-21 -18 -45 -19 -139 -19
c-76 0 -117 3 -125 13z" />
    <glyph glyph-name="eight" unicode="8" 
d="M84 -180l-27 22l-4 404c-4 432 4 522 45 543c14 6 166 12 400 12c414 0 423 -5 441 -67c4 -16 8 -221 8 -455v-425l-31 -28l-31 -25h-387c-365 0 -389 -1 -414 19zM730 90c4 4 8 30 6 55s-3 120 -7 214s-10 178 -12 186c-8 21 -78 17 -88 -6c-12 -29 -24 -428 -14 -451
c8 -18 18 -20 59 -14c27 4 52 12 56 16zM385 100c12 47 8 391 -6 420c-12 23 -18 27 -51 25l-39 -4l-4 -219c-2 -121 0 -226 2 -234c4 -8 24 -14 49 -14c35 0 43 6 49 26z" />
    <glyph glyph-name="nine" unicode="9" 
d="M113 -186c-23 18 -25 33 -27 215c0 55 6 88 16 98c12 12 74 14 289 14h277l-2 295c0 289 4 339 29 355c20 14 212 10 241 -4c16 -6 31 -21 37 -35c16 -37 10 -866 -6 -895c-27 -49 -43 -52 -447 -56c-330 -4 -387 -1 -407 13zM37 381c-27 29 -27 375 0 398
c14 12 65 18 186 20c148 4 167 2 181 -16c12 -14 20 -62 22 -197c4 -236 14 -227 -207 -227c-145 0 -166 4 -182 22z" />
    <glyph glyph-name="period" unicode="." 
d="M250 -68c-10 51 -10 154 0 191c6 23 20 31 94 37c49 4 108 2 133 -4l46 -10v-123v-125l-132 -3l-133 -4z" />
    <glyph glyph-name="F" unicode="F" 
d="M43 752c62 23 211 19 252 -6c27 -18 33 -129 27 -459l-8 -435l-156 -10l-158 -8v451c0 385 6 453 43 467zM500 756c21 8 143 12 270 8l230 -10v-451v-451l-270 -8l-267 -8l8 144l8 145l105 8l104 10l-8 154c-8 154 -8 156 -104 170c-92 14 -97 17 -105 144
c-6 92 2 135 29 145z" />
    <glyph glyph-name="J" unicode="J" 
d="M965 -156c-20 -8 -244 -10 -500 -6l-465 8v451v453l143 8l142 8c31 -244 -4 -647 -4 -647l391 18v281c0 182 12 291 33 312c35 35 133 43 233 16c61 -16 62 -23 62 -453c0 -330 -8 -439 -35 -449z" />
    <glyph glyph-name="Q" unicode="Q" 
d="M957 766c8 -20 10 -244 6 -500l-8 -465h-451h-453l-8 142l-8 143c244 31 647 -4 647 -4l-18 391h-279c-182 0 -294 12 -315 33c-35 35 -42 134 -15 234c16 61 23 61 453 61c330 0 439 -8 449 -35z" />
    <glyph glyph-name="V" unicode="V" 
d="M846 -137l-157 8l-7 385c-10 469 -1 492 183 492h135v-447v-447zM164 -143h-164l8 438l8 439h148h148l6 -439l8 -438h-162z" />
    <glyph glyph-name="x" unicode="x" 
d="M35 758c20 8 244 10 500 6l465 -8v-451v-453l-143 -8l-142 -8c-31 244 4 648 4 648l-391 -19v-279c0 -182 -12 -294 -33 -315c-35 -35 -133 -43 -233 -16c-61 16 -62 24 -62 454c0 330 8 439 35 449z" />
    <glyph glyph-name="v" unicode="v" 
d="M846 -137l-157 8l-7 385c-10 469 -1 492 183 492h135v-447v-447zM164 -143h-164l8 438l8 439h148h148l6 -439l8 -438h-162z" />
    <glyph glyph-name="j" unicode="j" 
d="M965 -156c-20 -8 -244 -10 -500 -6l-465 8v451v453l143 8l142 8c31 -244 -4 -647 -4 -647l391 18v281c0 182 12 291 33 312c35 35 133 43 233 16c61 -16 62 -23 62 -453c0 -330 -8 -439 -35 -449z" />
    <glyph glyph-name="X" unicode="X" 
d="M35 758c20 8 244 10 500 6l465 -8v-451v-453l-143 -8l-142 -8c-31 244 4 648 4 648l-391 -19v-279c0 -182 -12 -294 -33 -315c-35 -35 -133 -43 -233 -16c-61 16 -62 24 -62 454c0 330 8 439 35 449z" />
    <glyph glyph-name="f" unicode="f" 
d="M43 752c62 23 211 19 252 -6c27 -18 33 -129 27 -459l-8 -435l-156 -10l-158 -8v451c0 385 6 453 43 467zM500 756c21 8 143 12 270 8l230 -10v-451v-451l-270 -8l-267 -8l8 144l8 145l105 8l104 10l-8 154c-8 154 -8 156 -104 170c-92 14 -97 17 -105 144
c-6 92 2 135 29 145z" />
    <glyph glyph-name="q" unicode="q" 
d="M957 766c8 -20 10 -244 6 -500l-8 -465h-451h-453l-8 142l-8 143c244 31 647 -4 647 -4l-18 391h-279c-182 0 -294 12 -315 33c-35 35 -42 134 -15 234c16 61 23 61 453 61c330 0 439 -8 449 -35z" />
    <glyph glyph-name="z" unicode="z" 
d="M984 -123c-8 -20 -60 -29 -152 -29h-143l6 449l8 447l115 8c184 12 186 8 182 -447c-2 -219 -10 -412 -16 -428zM484 486c-10 -10 -47 -17 -84 -17c-88 0 -99 -45 -89 -356l9 -254l-142 -7c-98 -6 -146 2 -160 23c-23 35 -23 692 0 799l15 70h227h226l8 -119
c4 -66 0 -129 -10 -139z" />
    <glyph glyph-name="Z" unicode="Z" 
d="M984 -123c-8 -20 -60 -29 -152 -29h-143l6 449l8 447l115 8c184 12 186 8 182 -447c-2 -219 -10 -412 -16 -428zM484 486c-10 -10 -47 -17 -84 -17c-88 0 -99 -45 -89 -356l9 -254l-142 -7c-98 -6 -146 2 -160 23c-23 35 -23 692 0 799l15 70h227h226l8 -119
c4 -66 0 -129 -10 -139z" />
    <glyph glyph-name="hyphen" unicode="-" 
d="M61 301v164l439 -8l439 -8v-148v-149l-439 -7l-439 -6v162z" />
  </font>
</defs>
</svg>
